HIERARCHY
ROOT Hips
{
 OFFSET 0.000000 0.000000 0.000000
 CHANNELS 6 Xposition Yposition Zposition Yrotation Xrotation Zrotation
 JOINT Chest
 {
  OFFSET 0.000000 10.388337 0.005184
  CHANNELS 3 Yrotation Xrotation Zrotation
  JOINT Chest2
  {
   OFFSET 0.000000 10.458247 -0.010579
   CHANNELS 3 Yrotation Xrotation Zrotation
   JOINT Chest3
   {
    OFFSET 0.000000 10.415828 0.000000
    CHANNELS 3 Yrotation Xrotation Zrotation
    JOINT Chest4
    {
     OFFSET 0.000000 10.405206 0.000000
     CHANNELS 3 Yrotation Xrotation Zrotation
     JOINT Neck
     {
      OFFSET 0.000000 15.720090 0.000000
      CHANNELS 3 Yrotation Xrotation Zrotation
      JOINT Head
      {
       OFFSET 0.000000 9.732643 -0.022378
       CHANNELS 3 Yrotation Xrotation Zrotation
       End Site
       {
        OFFSET 0.000000 18.603619 -0.011814
       }
      }
     }
     JOINT RightCollar
     {
      OFFSET -3.167735 10.388953 0.000000
      CHANNELS 3 Yrotation Xrotation Zrotation
      JOINT RightShoulder
      {
       OFFSET -14.584825 0.000000 0.000000
       CHANNELS 3 Yrotation Xrotation Zrotation
       JOINT RightElbow
       {
        OFFSET 0.000000 -31.921689 0.000000
        CHANNELS 3 Yrotation Xrotation Zrotation
        JOINT RightWrist
        {
         OFFSET 0.000000 -25.835217 0.000000
         CHANNELS 3 Yrotation Xrotation Zrotation
         End Site
         {
          OFFSET 0.000000 -19.128920 0.000000
         }
        }
       }
      }
     }
     JOINT LeftCollar
     {
      OFFSET 3.167735 10.388953 0.000000
      CHANNELS 3 Yrotation Xrotation Zrotation
      JOINT LeftShoulder
      {
       OFFSET 14.584825 0.000000 0.000000
       CHANNELS 3 Yrotation Xrotation Zrotation
       JOINT LeftElbow
       {
        OFFSET 0.000000 -31.921689 0.000000
        CHANNELS 3 Yrotation Xrotation Zrotation
        JOINT LeftWrist
        {
         OFFSET 0.000000 -25.835217 0.000000
         CHANNELS 3 Yrotation Xrotation Zrotation
         End Site
         {
          OFFSET 0.000000 -19.128920 0.000000
         }
        }
       }
      }
     }
    }
   }
  }
 }
 JOINT RightHip
 {
  OFFSET -8.403278 -0.025659 -0.002592
  CHANNELS 3 Yrotation Xrotation Zrotation
  JOINT RightKnee
  {
   OFFSET 0.000000 -44.040977 0.002477
   CHANNELS 3 Yrotation Xrotation Zrotation
   JOINT RightAnkle
   {
    OFFSET 0.000000 -42.951162 0.004189
    CHANNELS 3 Yrotation Xrotation Zrotation
    JOINT RightToe
    {
     OFFSET 0.000000 -5.494238 12.197485
     CHANNELS 3 Yrotation Xrotation Zrotation
     End Site
     {
      OFFSET 0.000000 -1.538716 6.371628
     }
    }
   }
  }
 }
 JOINT LeftHip
 {
  OFFSET 8.403278 -0.025659 -0.002592
  CHANNELS 3 Yrotation Xrotation Zrotation
  JOINT LeftKnee
  {
   OFFSET 0.000000 -44.040977 0.002477
   CHANNELS 3 Yrotation Xrotation Zrotation
   JOINT LeftAnkle
   {
    OFFSET 0.000000 -42.951162 0.004189
    CHANNELS 3 Yrotation Xrotation Zrotation
    JOINT LeftToe
    {
     OFFSET 0.000000 -5.494238 12.197485
     CHANNELS 3 Yrotation Xrotation Zrotation
     End Site
     {
      OFFSET 0.000000 -1.538716 6.371628
     }
    }
   }
  }
 }
}
MOTION
Frames: 14
Frame Time: 0.008333
0.000000 92.319940 0.000000 0.000000 -5.767889 0.000000 0.000000 11.653876 0.000000 0.000000 -5.885988 0.000000 0.000000 -0.000000 0.000000 0.000000 -0.000000 0.000000 0.000000 12.528808 0.000000 0.000000 0.711711 0.000000 0.000000 -0.000000 0.000000 0.000000 0.000000 -90.000000 0.000000 -2.309063 0.000000 0.000000 2.309063 0.000000 0.000000 -0.000000 0.000000 0.000000 -0.000000 90.000000 0.000000 -2.309063 0.000000 0.000000 2.309063 0.000000 0.000000 8.520374 0.000000 0.000000 1.905768 0.000000 -0.000000 -4.658254 0.000000 0.000000 -0.000000 0.000000 0.000000 8.520374 0.000000 0.000000 1.905768 0.000000 -0.000000 -4.658254 0.000000 0.000000 -0.000000 0.000000
-14.634291 93.209123 651.313456 124.318362 -4.938749 1.659942 1.791467 3.603468 -0.780380 0.043807 0.085916 -0.020856 0.078121 0.153268 -0.037158 1.738985 3.466391 -0.787660 -2.145022 16.767531 3.935845 -5.323797 -4.403495 8.023874 4.277243 1.933212 0.168948 2.066241 2.410663 -7.774196 1.463707 -10.155327 5.229731 -3.983875 3.196004 3.842416 0.471950 0.782708 4.081683 -0.030480 1.218109 5.916854 -0.045193 -4.363185 -8.741687 0.454742 -1.988316 -0.622809 4.229096 17.393650 1.937853 -5.101325 -10.290918 1.236627 -20.613182 -1.929498 -3.995101 0.009117 -0.007487 0.031676 4.130585 -3.304135 1.699497 16.882342 7.358026 2.110965 -12.779544 1.629999 -5.408950 0.039264 -0.080494 -0.009832
-14.662842 93.216203 651.293610 124.318070 -4.944437 1.674663 1.786308 3.676449 -0.794461 0.044401 0.088857 -0.021400 0.079153 0.158463 -0.038113 1.735240 3.530745 -0.795697 -2.134514 16.742029 3.942402 -5.308636 -4.451135 8.034231 4.294269 1.862716 0.152293 2.144014 2.339018 -7.851609 1.402766 -10.141340 5.262833 -4.017260 3.135680 3.814695 0.390357 0.741111 4.030143 -0.130504 1.101738 5.993542 -0.031275 -4.387930 -8.837746 0.480249 -2.026655 -0.647544 4.178724 17.317887 1.888680 -5.045639 -10.139728 1.216081 -20.664486 -1.995988 -3.943332 -0.005628 0.003184 0.026498 4.105682 -3.308890 1.656945 16.851738 7.365159 2.109459 -12.700539 1.667058 -5.355087 0.032511 -0.090892 -0.026797
-14.695755 93.224811 651.274072 124.319956 -4.952248 1.684604 1.782864 3.750270 -0.804000 0.045003 0.091889 -0.022018 0.080200 0.163818 -0.039199 1.731257 3.595627 -0.806071 -2.124685 16.717419 3.951677 -5.295584 -4.496844 8.049780 4.284582 1.794411 0.120449 2.256319 2.282981 -7.896381 1.276369 -10.124516 5.297123 -4.056981 3.048238 3.770572 0.308551 0.700184 3.971107 -0.253535 0.975506 6.081635 0.005006 -4.380019 -8.928837 0.504706 -2.068832 -0.670413 4.119670 17.224799 1.845595 -4.993257 -9.956912 1.189448 -20.710021 -2.072900 -3.889443 -0.014702 0.013910 0.025835 4.075352 -3.314710 1.617477 16.817687 7.372109 2.110909 -12.631285 1.709181 -5.299746 0.026077 -0.103511 -0.043800
-14.731500 93.234772 651.258369 124.321794 -4.960367 1.681341 1.785426 3.821631 -0.803167 0.045649 0.095066 -0.022695 0.081322 0.169423 -0.040391 1.727972 3.661957 -0.817893 -2.115684 16.694275 3.964139 -5.285038 -4.539507 8.071403 4.243756 1.726593 0.072012 2.410396 2.240213 -7.892666 1.058373 -10.096314 5.333430 -4.107762 2.919511 3.699728 0.228137 0.654401 3.902828 -0.402059 0.843844 6.173007 0.068317 -4.334995 -9.004289 0.524982 -2.122792 -0.691752 4.057635 17.109757 1.815047 -4.940539 -9.736757 1.158846 -20.710027 -2.160569 -3.840070 -0.009573 0.023881 0.034159 4.031283 -3.325080 1.590827 16.778388 7.381828 2.113423 -12.543577 1.752196 -5.243340 0.019887 -0.114380 -0.059919
-14.768663 93.245989 651.248197 124.324770 -4.971484 1.664663 1.790986 3.895512 -0.793555 0.046362 0.098470 -0.023382 0.082560 0.175426 -0.041597 1.725697 3.731490 -0.828813 -2.106484 16.671231 3.979743 -5.275196 -4.581747 8.098765 4.171953 1.662094 0.005594 2.592184 2.196084 -7.827457 0.734883 -10.048521 5.375228 -4.168439 2.738099 3.592288 0.152715 0.602155 3.822945 -0.579059 0.701929 6.258224 0.164088 -4.242106 -9.055811 0.545363 -2.200825 -0.712801 3.995463 16.972483 1.800540 -4.882583 -9.473163 1.124227 -20.692868 -2.265729 -3.792014 0.004148 0.033957 0.046952 3.964204 -3.341951 1.577570 16.734691 7.403135 2.119845 -12.420560 1.792010 -5.189779 0.013955 -0.123694 -0.073045
-14.806206 93.258376 651.244248 124.327772 -4.988443 1.638526 1.796015 3.978682 -0.782220 0.047250 0.102216 -0.024014 0.084109 0.182029 -0.042703 1.727522 3.806018 -0.835873 -2.096655 16.645529 3.998730 -5.265566 -4.628695 8.132363 4.069903 1.606506 -0.080780 2.783763 2.139547 -7.698659 0.287629 -9.984520 5.436252 -4.241371 2.496219 3.436878 0.081874 0.555331 3.731788 -0.780644 0.525548 6.340694 0.296996 -4.081479 -9.090769 0.571697 -2.317807 -0.731310 3.933866 16.815703 1.800277 -4.819219 -9.164550 1.086383 -20.692203 -2.392955 -3.738846 0.013935 0.045049 0.057640 3.869566 -3.365396 1.576648 16.684335 7.442278 2.133471 -12.272539 1.826726 -5.147562 0.006916 -0.134215 -0.081402
-14.843297 93.271778 651.247122 124.326448 -5.011730 1.606057 1.801998 4.072837 -0.774106 0.048466 0.106314 -0.024539 0.086235 0.189244 -0.043615 1.738459 3.884566 -0.836971 -2.087947 16.616511 4.021692 -5.259645 -4.681362 8.173945 3.936093 1.573545 -0.189861 2.976391 2.072196 -7.510304 -0.295164 -9.922968 5.528002 -4.344276 2.192699 3.232779 0.015826 0.543014 3.638033 -0.996993 0.276382 6.436651 0.467025 -3.834960 -9.134774 0.611829 -2.488900 -0.746051 3.872930 16.639560 1.809679 -4.751618 -8.808834 1.048637 -20.719121 -2.545705 -3.676594 0.010891 0.058238 0.062079 3.751279 -3.396840 1.587380 16.623474 7.504917 2.153880 -12.098951 1.854637 -5.118043 -0.001477 -0.147456 -0.085798
-14.874189 93.286081 651.259635 124.327727 -5.055903 1.542299 1.806129 4.191718 -0.744882 0.050037 0.110588 -0.024900 0.088989 0.196765 -0.044233 1.760397 3.963259 -0.830981 -2.082683 16.585322 4.049582 -5.261975 -4.737346 8.226000 3.765760 1.577333 -0.318020 3.157948 2.007078 -7.268788 -0.992064 -9.887810 5.651228 -4.505233 1.824213 2.991502 -0.036106 0.592721 3.560282 -1.235944 -0.073524 6.537815 0.671367 -3.495885 -9.185753 0.687896 -2.721815 -0.771457 3.807601 16.455461 1.854430 -4.678709 -8.400859 1.010686 -20.747761 -2.742137 -3.605869 -0.004828 0.089042 0.061077 3.605443 -3.428827 1.637947 16.550622 7.598153 2.174929 -11.873762 1.898277 -5.090634 -0.015571 -0.183719 -0.091487
-14.906785 93.300551 651.280984 124.335247 -5.082971 1.480389 1.811108 4.300875 -0.727091 0.051821 0.114832 -0.025077 0.092120 0.204227 -0.044524 1.789645 4.038754 -0.818606 -2.082150 16.551809 4.082756 -5.275083 -4.796772 8.289650 3.562415 1.618989 -0.453360 3.293127 1.958980 -6.994043 -1.754078 -9.889519 5.815072 -4.746760 1.375350 2.725007 -0.069781 0.709935 3.514609 -1.529991 -0.520140 6.596352 0.922012 -3.072507 -9.189810 0.829525 -3.013359 -0.828437 3.722722 16.226417 1.896155 -4.595839 -7.933321 0.967952 -20.736569 -2.957375 -3.532449 -0.016556 0.109902 0.063443 3.445628 -3.494726 1.695226 16.463340 7.724767 2.189262 -11.617304 1.915702 -5.062709 -0.025668 -0.204979 -0.095955
-14.933191 93.315122 651.311912 124.373204 -5.121899 1.394448 1.801330 4.428283 -0.688923 0.053529 0.118987 -0.025123 0.095117 0.211527 -0.044582 1.816966 4.111634 -0.802834 -2.086435 16.515398 4.119077 -5.298456 -4.860859 8.361024 3.347070 1.701206 -0.587809 3.325695 1.926719 -6.711213 -2.533715 -9.918456 6.043420 -5.070441 0.819098 2.436437 -0.090405 0.879270 3.507608 -1.906836 -1.028380 6.561255 1.240453 -2.588818 -9.090976 1.053110 -3.359726 -0.916207 3.601122 15.975376 1.961196 -4.498162 -7.399667 0.917987 -20.684282 -3.217329 -3.451688 -0.030434 0.144541 0.066226 3.265603 -3.567789 1.790258 16.365859 7.875896 2.195546 -11.377433 1.956284 -5.033988 -0.043787 -0.252011 -0.103963
-14.962684 93.328689 651.351315 124.427811 -5.127829 1.322545 1.789871 4.525146 -0.659558 0.054681 0.122915 -0.025080 0.097127 0.218428 -0.044485 1.828209 4.182248 -0.786686 -2.092510 16.477780 4.154592 -5.325009 -4.927060 8.431653 3.145424 1.841535 -0.720554 3.220989 1.899533 -6.433491 -3.312363 -9.959206 6.357007 -5.473151 0.126442 2.124749 -0.096532 1.064616 3.518635 -2.355929 -1.537211 6.426191 1.619538 -2.073150 -8.871053 1.350374 -3.754372 -1.003798 3.443274 15.655541 2.010149 -4.389799 -6.794920 0.861753 -20.636961 -3.503319 -3.365876 -0.038592 0.170431 0.072110 3.100916 -3.687866 1.878780 16.269244 8.047710 2.197370 -11.186253 1.977233 -5.010760 -0.052478 -0.282911 -0.106545
-14.991087 93.340675 651.399108 124.509477 -5.114948 1.252115 1.767998 4.598982 -0.622339 0.054895 0.126309 -0.024926 0.097479 0.224394 -0.044196 1.813996 4.247151 -0.771078 -2.097765 16.441490 4.186933 -5.348884 -4.991113 8.496056 2.970839 2.051307 -0.845443 2.993821 1.883522 -6.163554 -4.130340 -10.001138 6.770052 -5.946367 -0.719550 1.796526 -0.083783 1.220503 3.499540 -2.843037 -1.978207 6.232618 2.031399 -1.551319 -8.536040 1.680243 -4.181064 -1.052231 3.243148 15.278396 2.058552 -4.284886 -6.118825 0.801179 -20.594764 -3.821852 -3.276183 -0.042996 0.194812 0.080387 2.953693 -3.842143 1.971887 16.183570 8.238381 2.194935 -11.040224 1.997243 -4.988406 -0.057336 -0.313423 -0.104797
-15.013543 93.350401 651.454163 124.627420 -5.103827 1.170709 1.728923 4.665554 -0.565960 0.054159 0.128989 -0.024602 0.096152 0.229111 -0.043612 1.775582 4.303329 -0.754398 -2.102630 16.408070 4.215733 -5.370615 -5.050161 8.553584 2.825367 2.325115 -0.954654 2.693773 1.901500 -5.893086 -5.068140 -10.035560 7.288557 -6.476987 -1.735507 1.454868 -0.050940 1.343611 3.426799 -3.334513 -2.326420 6.012000 2.454762 -1.052614 -8.103241 1.983193 -4.625141 -1.027775 2.996866 14.868023 2.119981 -4.192975 -5.379401 0.741620 -20.554912 -4.178157 -3.186324 -0.051423 0.226743 0.089602 2.817038 -4.008390 2.085429 16.120983 8.443945 2.187676 -10.962623 2.037683 -4.963412 -0.072084 -0.364225 -0.104209
